<svg width="18" height="18" viewBox="0 0 18 18" fill="none" xmlns="http://www.w3.org/2000/svg">
<g id="Phone">
<rect width="18" height="18" fill="white"/>
<path id="vector" fill-rule="evenodd" clip-rule="evenodd" d="M4.10261 8.20424C5.8081 10.2887 7.71726 12.1979 9.80175 13.9034L10.3415 14.345C11.2362 15.077 12.5399 15.012 13.3573 14.1946L14.6195 12.9324L12.233 10.5459L10.2443 12.5347L5.46294 7.75328L7.4583 5.77117L5.07359 3.38646L3.81138 4.64867C2.994 5.46604 2.92898 6.7698 3.66096 7.66444L4.10261 8.20424ZM8.85189 15.0643C6.6902 13.2957 4.71033 11.3158 2.94167 9.15409L2.50003 8.6143C1.28005 7.12322 1.38843 4.9503 2.75072 3.58801L5.07359 1.26514L9.58316 5.77471L7.5878 7.75682L10.2443 10.4133L12.233 8.42459L16.7408 12.9324L14.418 15.2553C13.0557 16.6176 10.8828 16.7259 9.39169 15.506L8.85189 15.0643Z" fill="#E93D07"/>
</g>
</svg>
